<svg aria-hidden="true" style="position: absolute; width: 0; height: 0; overflow: hidden;" version="1.1" xmlns="http://www.w3.org/2000/svg" xmlns:xlink="http://www.w3.org/1999/xlink">
<defs>
<!-- contacts -->
<symbol id="icon-smartphone-1" viewBox="0 0 20 32">
<path d="M18 0h-14l-4 4v26l4 2h14l2-2v-26l-2-4zM4 2h14v22h-16v-20l2-2zM18 30h-16v-4h16v4z"/>
<path  d="M4 28c2 0 2 0 0 0 0 2 0 2 0 0-2 0-2 0 0 0z"/>
</symbol>
<symbol id="icon-messeg-1" viewBox="0 0 43 32">
<path  d="M40 0h-34.667l-5.333 5.333v24l5.333 2.667h34.667l2.667-2.667v-24l-2.667-5.333zM40 2.667l-18.667 16-18.667-16h37.333zM40 29.333h-37.333v-24l18.667 16 18.667-16v24z"/>
</symbol>
<!-- we us -->
<symbol id="icon-antenna-1-1" viewBox="0 0 32 32">
<path  d="M30.629 21.943l-8.229-8.229 0.914-4.571h0.914c1.179-0.1 2.098-1.082 2.098-2.278 0-1.262-1.023-2.286-2.286-2.286s-2.286 1.023-2.286 2.286c0 0.328 0.069 0.639 0.193 0.921l-0.006-0.015-5.029 0.457-7.771-8.229h-0.914l-1.371 1.829v0.457l0.457 0.914c-1.11 2.049-1.762 4.486-1.762 7.076 0 4.209 1.723 8.015 4.503 10.751l0.002 0.002v6.857h-6.4c-1.371 0-2.743 0.914-2.743 2.743v0.914l0.914 0.457h24.229l0.457-0.457v-0.914c0-1.829-0.914-2.743-2.286-2.743h-6.4v-2.743c0.748 0.132 1.61 0.207 2.49 0.207 2.787 0 5.398-0.756 7.638-2.074l-0.071 0.038 0.457 0.914 0.457 0.457 1.829-1.829v-0.914zM23.314 6.4c0.133-0.068 0.291-0.108 0.457-0.108 0.565 0 1.022 0.458 1.022 1.022 0 0.398-0.227 0.743-0.559 0.912l-0.006 0.003c-0.133 0.068-0.291 0.108-0.457 0.108-0.565 0-1.022-0.458-1.022-1.022 0-0.398 0.227-0.743 0.559-0.912l0.006-0.003zM21.943 9.6l-0.457 3.2-1.371-1.371 1.829-1.829zM21.486 8.686l-1.829 2.286-1.829-1.829 3.657-0.457zM24.229 28.8c0.457 0 1.371 0.914 1.371 1.829v0.457h-23.314v-0.457c0-0.914 0.457-1.829 1.371-1.829h20.571zM16.457 26.514v1.371h-5.029v-1.371h5.029zM11.429 25.6v-4.114c0-1.371 0.914-2.286 2.286-2.286 1.829 0 2.743 0.914 2.743 2.286v4.114h-5.029zM17.829 23.771v-2.286c0-1.829-1.829-3.2-4.114-3.2-1.371 0-2.286 0.457-3.2 1.829-4.114-4.571-5.029-10.971-2.286-16l18.743 18.743c-2.743 1.371-6.4 1.829-9.143 0.914zM28.8 23.314l-0.457-0.914-20.571-20.571 0.914-0.457 21.029 21.029-0.914 0.914z"/>
<path fill="#2196F3" d="M13.714 20.114c-0.567 0.318-0.943 0.915-0.943 1.6s0.377 1.282 0.934 1.595l0.009 0.005c0.884 0 1.6-0.716 1.6-1.6s-0.716-1.6-1.6-1.6v0zM14.171 22.4c-0.067 0.034-0.145 0.054-0.229 0.054-0.282 0-0.511-0.229-0.511-0.511 0-0.199 0.114-0.371 0.28-0.456l0.003-0.001c0.067-0.034 0.145-0.054 0.229-0.054 0.282 0 0.511 0.229 0.511 0.511 0 0.199-0.114 0.371-0.28 0.456l-0.003 0.001z"/>
</symbol>
<symbol id="icon-astronaut-1-1" viewBox="0 0 32 32">
<path class="blu" fill="#2196F3" d="M32 4.571l-0.457-0.457-1.829-0.457-0.914-1.371h-0.914l-0.914 1.371-1.829 0.457c-0.067-0.034-0.145-0.054-0.229-0.054-0.282 0-0.511 0.229-0.511 0.511 0 0.199 0.114 0.371 0.28 0.456l0.003 0.001 1.371 1.371-0.457 1.829c-0.034 0.067-0.054 0.145-0.054 0.229 0 0.282 0.229 0.511 0.511 0.511 0.199 0 0.371-0.114 0.456-0.28l0.001-0.003 1.829-0.914 1.829 0.914c0.252 0 0.457-0.205 0.457-0.457v0-1.829l1.371-1.371v-0.457zM29.714 5.943l-0.457 0.457 0.457 0.914-1.371-0.457c-0.066-0.038-0.144-0.061-0.229-0.061s-0.163 0.023-0.231 0.062l0.002-0.001-0.914 0.457 0.457-0.914-1.371-1.371h1.371l0.457-0.457 0.457-0.914 0.457 0.914 0.457 0.457h0.914l-0.457 0.914zM26.057 20.571h-0.914v0.914h0.914v-0.914zM26.057 22.857h-0.914v0.914h0.914v-0.914zM27.429 21.486h-1.371v1.371h1.371v-1.371zM25.143 21.486h-0.914v1.371h0.914v-1.371zM22.4 26.514h-0.914v0.914h0.914v-0.914zM22.4 28.343h-0.914v1.371h0.914v-1.371zM23.314 27.429h-0.914v0.914h0.914v-0.914zM21.486 27.429h-1.371v0.914h1.371v-0.914zM16 24.229h-0.914v0.914h0.914v-0.914zM16 26.514h-0.914v0.914h0.914v-0.914zM16.914 25.143h-0.914v1.371h0.914v-1.371zM15.086 25.143h-1.371v1.371h1.371v-1.371zM5.943 5.943h-1.371v1.371h1.371v-1.371zM5.943 8.229h-1.371v0.914h1.371v-0.914zM6.857 7.314h-0.914v0.914h0.914v-0.914zM4.571 7.314h-0.914v0.914h0.914v-0.914z"/>
<path  d="M24.686 14.171l-1.371-0.914-0.914 0.457-1.371 0.914-1.829 1.371-1.371-0.457c2.677-0.975 4.555-3.498 4.555-6.459 0-3.787-3.070-6.857-6.857-6.857-0.316 0-0.628 0.021-0.933 0.063l0.036-0.004c-3.787 0-6.857 3.070-6.857 6.857 0 1.551 0.515 2.983 1.384 4.132l-0.012-0.017h-3.2l-3.2 1.371-1.829 0.914c-0.559 0.324-0.929 0.919-0.929 1.6 0 1.018 0.825 1.843 1.843 1.843 0.336 0 0.652-0.090 0.923-0.248l-0.009 0.005 1.371-0.914 2.286-0.914h1.371l-6.857 6.857c-0.25 0.31-0.401 0.709-0.401 1.143s0.151 0.833 0.404 1.146l-0.003-0.004c0.31 0.25 0.709 0.401 1.143 0.401s0.833-0.151 1.146-0.404l-0.004 0.003 1.371-1.371 1.829-1.371 0.914 0.914-3.2 3.2c-0.25 0.31-0.401 0.709-0.401 1.143s0.151 0.833 0.404 1.146l-0.003-0.004c0.31 0.25 0.709 0.401 1.143 0.401s0.833-0.151 1.146-0.404l-0.004 0.003 4.571-4.571 5.029-5.486 3.657 0.457h0.457l3.2-2.286 1.371-1.371v-2.286zM2.286 17.829h-0.914c-0.19-0.168-0.31-0.413-0.31-0.686s0.119-0.517 0.309-0.685l0.001-0.001 1.371-0.457 0.457 0.914v0.457l-0.914 0.457zM5.486 16l-1.371 0.914-0.457-0.914v-0.457l1.829-0.914v1.371zM20.571 9.143l-0.457 2.743-4.114-1.829-0.914-1.371 1.371-5.029c2.743 0.914 4.114 3.2 4.114 5.486zM9.143 9.143c0.235-3.088 2.799-5.505 5.927-5.505 0.167 0 0.332 0.007 0.495 0.020l-0.021-0.001-1.371 4.571c-0.914 0-1.829 0.914-1.829 1.829 0.137 0.886 0.894 1.557 1.808 1.557 0.556 0 1.054-0.248 1.39-0.64l0.002-0.002 4.114 1.829c-1.098 1.316-2.738 2.147-4.573 2.147-3.234 0-5.864-2.582-5.941-5.797l-0-0.007zM15.086 10.057l-0.914 0.914-0.914-0.914 0.914-0.914 0.914 0.914zM2.286 25.143h-0.457c-0.252 0-0.457-0.205-0.457-0.457s0.205-0.457 0.457-0.457v0l0.914-0.914 0.457 0.914-0.914 0.914zM5.486 28.8h-0.457c-0.252 0-0.457-0.205-0.457-0.457s0.205-0.457 0.457-0.457v0l0.914-0.914 0.914 0.914-1.371 0.914zM9.143 25.6l-1.829 1.371h-0.457l-0.457-0.457 1.829-1.829v-0.914l-1.829-1.829h-0.457l-1.829 1.371-0.914-0.914 2.743-2.286 4.114 4.571-0.914 0.914zM16 18.286c-0.252 0-0.457 0.205-0.457 0.457v0l-4.571 5.029-4.571-4.114 2.743-3.2c0.252 0 0.457-0.205 0.457-0.457s-0.205-0.457-0.457-0.457v0h-2.286v-1.371h3.2c1.232 1.194 2.915 1.93 4.769 1.93 0.415 0 0.821-0.037 1.216-0.107l-0.042 0.006h0.457l2.286 1.371v0.457l0.457 0.914-3.2-0.457zM20.114 18.743l-0.457-1.829 1.371-0.914 0.457 0.457 0.457 0.914-1.829 1.371zM23.771 15.543l-0.914 0.914-0.914-1.371 0.914-0.457h0.457c0.279 0.16 0.465 0.456 0.465 0.796 0 0.042-0.003 0.083-0.008 0.123l0-0.005z"/>
<path  d="M13.714 18.743l-2.286-2.286h-0.914l-1.829 2.286c-0.039 0.066-0.061 0.144-0.061 0.229s0.023 0.163 0.062 0.231l-0.001-0.002 1.829 2.286c0 0.252 0.205 0.457 0.457 0.457s0.457-0.205 0.457-0.457v0l2.286-2.286c0.039-0.066 0.061-0.144 0.061-0.229s-0.023-0.163-0.062-0.231l0.001 0.002zM10.971 20.114l-1.371-1.371 1.371-1.371 1.371 1.371-1.371 1.371zM17.371 5.029l-0.457 0.914s1.829 0.457 1.829 2.286h0.914c0-1.829-1.829-2.743-2.286-3.2zM19.657 9.143h-0.914v1.371h0.914v-1.371z"/>
</symbol>
<symbol id="icon-clock-1-1" viewBox="0 0 32 32">
<path  d="M31.086 15.086c-0.142-8.222-6.841-14.833-15.084-14.833-8.332 0-15.086 6.754-15.086 15.086 0 6.698 4.365 12.376 10.405 14.346l0.107 0.030h0.457l0.457-0.457 3.657-11.886c0.827-0.212 1.428-0.95 1.428-1.829 0-1.041-0.844-1.885-1.885-1.885-0.162 0-0.32 0.021-0.47 0.059l0.013-0.003-5.029-5.029c-0.117-0.117-0.279-0.189-0.457-0.189-0.357 0-0.646 0.289-0.646 0.646 0 0.179 0.072 0.34 0.189 0.457l5.029 5.029c-0.457 0.457 0 1.829 0.457 2.286l-3.657 11.429c-5.571-1.993-9.486-7.227-9.486-13.374 0-7.827 6.345-14.171 14.171-14.171s14.171 6.345 14.171 14.171c0 5.715-3.383 10.639-8.255 12.881l-0.088 0.036v-1.829c0-0.379-0.307-0.686-0.686-0.686s-0.686 0.307-0.686 0.686v0l-3.657 3.2c-0.379 0-0.686 0.307-0.686 0.686s0.307 0.686 0.686 0.686v0l5.029 1.371c0.117 0.117 0.279 0.189 0.457 0.189 0.357 0 0.646-0.289 0.646-0.646 0-0.179-0.072-0.34-0.189-0.457v0l-0.457-1.829c5.486-2.286 9.143-7.771 9.143-14.171zM16 14.629c0.379 0 0.686 0.307 0.686 0.686s-0.307 0.686-0.686 0.686v0c-0.379 0-0.686-0.307-0.686-0.686s0.307-0.686 0.686-0.686v0zM18.286 29.714l1.829-2.286 0.914 3.2-2.743-0.914z"/>
<path  fill="#2196F3" d="M15.543 3.2v1.371c0 0.252 0.205 0.457 0.457 0.457s0.457-0.205 0.457-0.457v0-1.371c0-0.252-0.205-0.457-0.457-0.457s-0.457 0.205-0.457 0.457v0zM3.657 14.629c-0.379 0-0.686 0.307-0.686 0.686s0.307 0.686 0.686 0.686v0h1.371c0.379 0 0.686-0.307 0.686-0.686s-0.307-0.686-0.686-0.686v0h-1.371zM27.886 16c0.379 0 0.686-0.307 0.686-0.686s-0.307-0.686-0.686-0.686v0h-0.914c-0.379 0-0.686 0.307-0.686 0.686s0.307 0.686 0.686 0.686v0h0.914z"/>
</symbol>
<symbol id="icon-diagram-1-1" viewBox="0 0 32 32">
<path  fill="#2196F3" d="M15.086 15.086h0.914v4.571h-0.914v-4.571zM19.2 16.914h0.914v2.743h-0.914v-2.743zM10.514 18.743h1.371v0.914h-1.371v-0.914zM7.314 18.286h1.371v1.371h-1.371v-1.371z"/>
<path  d="M1.371 28.343h25.6c0.914 0 1.829-0.914 1.829-1.829v-1.829c0-0.914-0.914-1.829-1.829-1.829h-0.457v-13.257l3.2-2.743c0.221 0.102 0.48 0.162 0.752 0.162 1.010 0 1.829-0.819 1.829-1.829s-0.819-1.829-1.829-1.829c-1.010 0-1.829 0.819-1.829 1.829 0 0.273 0.060 0.531 0.167 0.764l-0.005-0.011-2.286 2.286v-1.371c0-0.914-0.457-1.371-1.371-1.371h-21.486c-0.914 0-1.371 0.457-1.371 1.371v16h-0.914c-0.457 0-1.371 0.914-1.371 1.829v1.829c0 0.914 0.914 1.829 1.371 1.829zM30.171 5.029c0.252 0 0.457 0.205 0.457 0.457s-0.205 0.457-0.457 0.457v0c-0.252 0-0.457-0.205-0.457-0.457s0.205-0.457 0.457-0.457v0zM3.2 6.857l0.457-0.457h21.486l0.457 0.457v2.286l-0.914 0.914v-1.829l-0.914-0.914h-19.2l-0.457 0.914v13.257l0.457 0.457h19.2l0.914-0.457v-9.6l0.914-1.371v12.343h-22.4v-16zM7.771 13.714c-0.507 0.257-0.848 0.775-0.848 1.371 0 0.847 0.686 1.533 1.533 1.533 0.25 0 0.486-0.060 0.694-0.166l-0.009 0.004 1.829 0.914h0.457l4.114-4.571 3.657 3.2h0.914l3.2-3.2v8.229h-17.829v-12.343h17.829v2.743l-3.657 3.2-3.657-2.743h-0.914l-4.114 4.571-1.371-0.914c0-0.914-0.914-1.829-1.829-1.829zM8.686 15.543c0 0.379-0.307 0.686-0.686 0.686s-0.686-0.307-0.686-0.686v0c0-0.379 0.307-0.686 0.686-0.686s0.686 0.307 0.686 0.686v0zM11.886 24.229h5.029v0.457l-0.457 0.457h-4.114l-0.457-0.457v-0.457zM0.914 24.686l0.457-0.457h9.143v0.457c0 0.914 0.914 1.371 1.829 1.371h4.114c0.914 0 1.829-0.457 1.829-1.371v-0.457h8.686l0.914 0.457v1.829l-0.914 0.914h-25.6l-0.457-0.914v-1.829z"/>
</symbol>
<!-- social -->
<symbol id="icon-facebook" viewBox="0 0 32 32">
<path  d="M20.8 4.8h3.2v-4.8h-4.8c-3.2 0-6.4 3.2-6.4 8v4.8h-4.8v4.8h4.8v14.4h6.4v-14.4h3.2l1.6-4.8h-4.8v-4.8l1.6-3.2z"/>
</symbol>
<symbol id="icon-instagram" viewBox="0 0 32 32">
<path  d="M32 9.6v-4.8l-3.2-1.6-1.6-1.6-4.8-1.6c-6.261 0.060-12.343 0.64-18.259 1.698l0.659-0.098-3.2 3.2-1.6 4.8c0.060 6.261 0.64 12.343 1.698 18.259l-0.098-0.659 3.2 3.2 4.8 1.6c6.289-0.097 12.369-0.675 18.296-1.7l-0.696 0.1 4.8-3.2v-4.8c0.112-1.912 0.175-4.149 0.175-6.4s-0.064-4.488-0.189-6.708l0.014 0.308zM28.8 22.4v3.2l-3.2 3.2h-3.2c-2.394 0.182-5.185 0.286-8 0.286s-5.606-0.104-8.369-0.308l0.369 0.022-3.2-3.2v-3.2c-0.182-2.394-0.286-5.185-0.286-8s0.104-5.606 0.308-8.369l-0.022 0.369 3.2-3.2h3.2c2.394-0.18 5.185-0.282 8-0.282s5.606 0.102 8.37 0.304l-0.37-0.022 3.2 3.2v3.2c0.117 1.913 0.183 4.149 0.183 6.4s-0.066 4.487-0.197 6.706l0.014-0.306z"/>
<path  d="M16 8c-4.418 0-8 3.582-8 8s3.582 8 8 8v0c4.418 0 8-3.582 8-8s-3.582-8-8-8v0zM16 20.8c-2.651 0-4.8-2.149-4.8-4.8s2.149-4.8 4.8-4.8v0c2.651 0 4.8 2.149 4.8 4.8s-2.149 4.8-4.8 4.8v0zM27.2 8c0 1.325-1.075 2.4-2.4 2.4s-2.4-1.075-2.4-2.4v0c0-1.325 1.075-2.4 2.4-2.4s2.4 1.075 2.4 2.4v0z"/>
</symbol>
<symbol id="icon-linkedin" viewBox="0 0 32 32">
<path  d="M32 32v-11.2c0-6.4-1.6-11.2-8-11.2l-6.4 3.2v-1.6h-6.4v20.8h6.4v-11.2c0-1.6 1.6-4.8 4.8-4.8s3.2 3.2 3.2 4.8v11.2h6.4zM0 11.2h6.4v20.8h-6.4v-20.8zM3.2 0l-3.2 3.2c0 3.2 1.6 4.8 3.2 4.8 3.2 0 4.8-1.6 4.8-4.8 0-1.6-1.6-3.2-4.8-3.2z"/>
</symbol>
<symbol id="icon-twitter" viewBox="0 0 32 32">
<path  d="M32 6.4h-3.2l1.6-3.2-3.2 1.6c-1.133-1.955-3.215-3.25-5.6-3.25-3.562 0-6.45 2.888-6.45 6.45 0 1.177 0.315 2.281 0.866 3.231l-0.017-0.031c-6.4 0-11.2-3.2-14.4-6.4-0.257 0.666-0.406 1.437-0.406 2.242 0 2.518 1.454 4.696 3.568 5.741l0.037 0.017h-3.2c0 3.2 1.6 4.8 4.8 6.4-0.48 0.129-1.031 0.203-1.6 0.203s-1.12-0.074-1.645-0.213l0.045 0.010c1.6 1.6 3.2 4.8 6.4 4.8-1.917 1.206-4.248 1.922-6.746 1.922-1.012 0-1.996-0.117-2.94-0.339l0.087 0.017 9.6 3.2c10.604 0 19.2-8.596 19.2-19.2v0l3.2-3.2z"/>
</symbol>
<!-- clients -->
<symbol id="icon-book-1" viewBox="0 0 57 32">
<path  d="M26.667 3.2h-0.533c-0.079-0.002-0.173-0.003-0.267-0.003s-0.187 0.001-0.281 0.003l0.014-0c-2.133 0-4.267 0.533-5.867 1.6v11.733h0.533c1.739-0.611 3.746-0.996 5.834-1.066l0.033-0.001v1.6h-1.067c-2.577 0.224-4.935 0.988-7.017 2.177l0.084-0.044v-15.467c2.291-1.341 5.044-2.133 7.982-2.133 0.006 0 0.012 0 0.019 0h-0.001c1 0.112 1.904 0.299 2.776 0.562l-0.11-0.028v1.6l-1.6-0.533h-0.533zM29.333 4.8h1.067c2.944-0.023 5.698-0.811 8.081-2.176l-0.081 0.043v14.933c-2.189 1.198-4.796 1.903-7.568 1.903-1.096 0-2.167-0.11-3.202-0.32l0.103 0.017v-14.933c0.434 0.186 0.967 0.369 1.514 0.514l0.086 0.019zM36.8 4.8h-0.533l-1.067 0.533c-1.366 0.369-2.935 0.581-4.553 0.581-0.462 0-0.92-0.017-1.374-0.051l0.060 0.004h-0.533v12.267h1.6c2.343-0.034 4.541-0.621 6.479-1.638l-0.079 0.038v-11.733z"/>
<path  d="M19.2 24c-0.076-0.045-0.168-0.071-0.267-0.071s-0.19 0.027-0.269 0.073l0.003-0.001h-0.533c-0.238 0.109-0.424 0.296-0.531 0.527l-0.003 0.007v2.667h0.533v0.533h0.533c0.326-0.187 0.542-0.532 0.542-0.929 0-0.049-0.003-0.096-0.010-0.143l0.001 0.005h-0.533v0.533c-0.076 0.045-0.168 0.071-0.267 0.071s-0.19-0.027-0.269-0.073l0.003 0.001v-2.667c0.076-0.045 0.168-0.071 0.267-0.071s0.19 0.027 0.269 0.073l-0.003-0.001v0.533h0.533v-0.533c0.021-0.080 0.034-0.172 0.034-0.267s-0.012-0.187-0.036-0.274l0.002 0.007zM22.4 24c-0.153-0.090-0.337-0.143-0.533-0.143s-0.38 0.053-0.538 0.146l0.005-0.003h-0.533v3.2l0.533 0.533c0.080 0.021 0.172 0.034 0.267 0.034s0.187-0.012 0.274-0.036l-0.007 0.002 0.533-0.533c0.021-0.080 0.034-0.172 0.034-0.267s-0.012-0.187-0.036-0.274l0.002 0.007v-2.667zM21.867 26.667c0.045 0.076 0.071 0.168 0.071 0.267s-0.027 0.19-0.073 0.269l0.001-0.003c-0.076 0.045-0.168 0.071-0.267 0.071s-0.19-0.027-0.269-0.073l0.003 0.001c-0.045-0.076-0.071-0.168-0.071-0.267s0.027-0.19 0.073-0.269l-0.001 0.003v-2.133c0.076-0.045 0.168-0.071 0.267-0.071s0.19 0.027 0.269 0.073l-0.003-0.001v2.133zM26.133 27.733v-3.733h-0.533l-0.533 1.6-0.533-1.6h-0.533v3.733h0.533v-2.133l0.533 1.067 0.533-1.067v2.133h0.533zM29.333 24h-1.6v3.733h0.533v-1.6h1.067v-0.533c0.034-0.16 0.054-0.345 0.054-0.533s-0.020-0.373-0.057-0.551l0.003 0.017v-0.533zM28.8 25.067v0.533h-0.533v-1.067h0.533v0.533zM32 24h-0.533l-1.067 3.733h0.533l0.533-1.067h0.533v1.067h0.533l-0.533-3.733zM31.467 26.133v-1.067l0.533 1.067h-0.533zM35.2 26.133l-1.067-2.133v1.6h0.533l0.533 2.133h0.533v-3.733h-0.533v2.133zM38.4 24l-0.533 1.6-0.533-1.6h-0.533l1.067 2.133v1.6h0.533v-1.6l0.533-2.133h-0.533zM17.6 28.8v0.533h0.533v-1.067h-0.533v0.533zM19.733 28.267l-0.533 1.067h1.067l-0.533-1.067zM21.867 28.8v0.533l-0.533-0.533h1.067l-0.533-0.533-0.533 0.533v0.533c0.076 0.045 0.168 0.071 0.267 0.071s0.19-0.027 0.269-0.073l-0.003 0.001h0.533v-0.533h-0.533zM24 28.267v0zM25.6 28.267v0zM27.733 28.8l-0.533-0.533v0.533l0.533 0.533v-0.533zM29.333 28.8v-0.533h-0.533v1.067h0.533v-0.533zM33.067 28.8h-0.533v0h0.533v0zM34.667 28.8h0.533v-0.533h-0.533v0.533zM36.8 28.8v-0.533h-0.533v0.533h0.533v0zM36.8 28.8v0zM38.4 28.8h0.533v-0.533h-0.533v0.533z"/>
</symbol>
<symbol id="icon-box-1" viewBox="0 0 57 32">
<path  d="M28.267 14.4v-3.2l1.067-0.533h1.067l0.533 1.067v0.533h-1.067v-1.067h-0.533v3.2h0.533v-1.067h1.067v0.533l-0.533 0.533-1.067 0.533-1.067-0.533zM32 14.4v-3.733h2.133l0.533 1.067v1.6l-0.533 1.067-1.067 0.533-1.067-0.533zM33.6 14.4v-3.2h-0.533l-0.533 0.533v2.133l0.533 0.533c0.077 0.045 0.168 0.071 0.267 0.071s0.19-0.027 0.269-0.073l-0.003 0.001zM35.733 10.667h1.067l0.533 3.2 0.533-3.2h1.067v4.267h-0.533v-3.2l-0.533 3.2h-0.533l-1.067-3.2v3.2h-0.533v-4.267zM40 10.667h1.6c1.067 0 1.067 0.533 1.067 1.067 0 1.067 0 1.067-1.067 1.067h-0.533v2.133h-1.067v-4.267zM41.6 12.267h0.533v-1.067h-1.067v1.067h0.533zM44.267 10.667h1.067l1.067 4.267h-1.067v-1.067h-1.067v1.067h-1.067l1.067-4.267zM44.8 13.333v-1.6l-0.533 1.6h0.533zM46.933 10.667h0.533l1.6 2.667v-2.667h0.533v4.267h-0.533l-1.067-2.667v2.667h-1.067v-4.267zM51.2 13.333l-1.067-2.667h1.067l0.533 1.6 0.533-1.6h1.067l-1.067 2.667v1.6h-1.067v-1.6zM29.867 17.067h-0.533v1.6h-0.533v-1.6h1.067zM32 18.667l-0.533-0.533h-1.067v0.533h-0.533l1.067-1.6h0.533l0.533 1.6zM30.933 18.133h0.533v-1.067h-0.533v1.067zM33.6 18.667h0.533v-1.067h0.533v1.067c-0.080 0.014-0.172 0.022-0.267 0.022s-0.187-0.008-0.276-0.024l0.010 0.001h-1.067l-0.533-0.533v-0.533l0.533-0.533c0.159-0.058 0.342-0.091 0.533-0.091s0.375 0.034 0.544 0.095l-0.011-0.004c0.080-0.021 0.172-0.034 0.267-0.034s0.187 0.012 0.274 0.036l-0.007-0.002h-0.533c-0.080-0.021-0.172-0.034-0.267-0.034s-0.187 0.012-0.274 0.036l0.007-0.002h-0.533v1.6c0.077 0.045 0.168 0.071 0.267 0.071s0.19-0.027 0.269-0.073l-0.003 0.001zM36.8 18.667h-0.533v-1.6h0.533v1.6zM38.933 18.667h-0.533v-1.6h0.533v1.6zM40 17.067l1.067 1.067v-1.067h0.533v1.6h-0.533l-1.067-1.6v1.6h-0.533v-1.6h0.533zM43.733 17.067h-1.067v0.533h1.067v0.533h-1.067v0.533h-0.533v-1.6h1.6zM11.2 4.8l13.867 3.2v11.733l-13.867-3.2v-11.733zM10.667 3.733v13.333l15.467 3.733v-13.333l-15.467-3.733z"/>
<path  d="M18.667 27.2l-15.467-3.733v-13.867l15.467 4.267v13.333z"/>
<path  d="M10.667 4.267l13.333 3.733-5.333 4.8-13.867-3.2 5.867-5.333zM10.667 3.733l-7.467 5.867 15.467 4.267 7.467-6.4-15.467-3.733zM19.733 26.133l6.4-5.333-6.4-1.6v6.933z"/>
</symbol>
<symbol id="icon-circle-1" viewBox="0 0 57 32">
<path  d="M19.2 26.133h0.533l-0.533 0.533h-1.067v-0.533h-0.533c-0.090-0.153-0.143-0.337-0.143-0.533s0.053-0.38 0.146-0.538l-0.003 0.005h0.533v-0.533c0.159-0.058 0.342-0.091 0.533-0.091s0.375 0.034 0.544 0.095l-0.011-0.004 0.533 0.533h-0.533c-0.080-0.021-0.172-0.034-0.267-0.034s-0.187 0.012-0.274 0.036l0.007-0.002h-0.533v1.067h1.067zM22.933 25.6v0.533h-0.533v0.533h-1.067l-0.533-0.533v-1.067l0.533-0.533h1.067v0.533c0.238 0.109 0.424 0.296 0.531 0.527l0.003 0.007zM22.4 25.6v-0.533c-0.076-0.045-0.168-0.071-0.267-0.071s-0.19 0.027-0.269 0.073l0.003-0.001h-1.067v1.067c0.076 0.045 0.168 0.071 0.267 0.071s0.19-0.027 0.269-0.073l-0.003 0.001h1.067v-0.533zM25.067 26.133l1.067-1.6v0.533l-1.067 1.067-1.067-1.067v1.6-2.133h0.533l0.533 1.6zM27.733 25.6v1.067-2.133h1.067v1.067l-0.533 0.533-0.533-0.533zM27.733 25.6h1.067v-0.533h-1.067v0.533zM32 26.667h-0.533v-0.533h-1.067l-0.533 0.533 0.533-2.133h0.533l1.067 2.133zM30.4 26.133h0.533v-1.067l-0.533 1.067zM33.067 24.533l1.067 1.6v-1.6h0.533v2.133h-0.533l-1.067-1.6v1.6-2.133zM36.8 25.6v1.067h-0.533v-1.067l-0.533-1.067h0.533v1.067c0.080-0.021 0.172-0.034 0.267-0.034s0.187 0.012 0.274 0.036l-0.007-0.002zM25.067 21.333c2.133-0.533 3.733-1.6 4.8-3.2 1.6-1.6 2.133-3.733 2.133-5.333l-2.133-2.133c0 2.133 0 4.267-1.067 5.867-0.533 2.133-2.133 3.733-3.733 4.8z"/>
<path  d="M24 21.333c2.133-1.067 3.733-2.667 4.267-4.8 1.067-2.133 1.067-4.267 0.533-6.4l-3.2-2.667c0.983 1.679 1.564 3.698 1.564 5.852 0 3.102-1.204 5.923-3.17 8.021l0.006-0.006zM34.667 14.933c-0.533 2.133-1.6 3.733-3.733 5.333l-1.6 1.067 3.733-2.133 2.667-3.2-1.067-1.067z"/>
<path  d="M34.133 14.4l-1.6-1.6c0 2.133-1.067 3.733-2.133 5.333s-2.133 2.667-4.267 3.2h1.6l4.267-2.667 2.133-4.267zM24.533 6.4l-2.133-1.6c-2.133 0.533-3.733 1.6-4.8 3.2-1.067 1.067-1.6 3.2-1.6 4.8 0 2.133 0.533 3.733 2.133 5.333 1.067 1.6 3.2 2.667 5.333 3.2 2.133-2.133 3.2-4.8 3.2-7.467s-0.533-5.333-2.133-7.467zM38.933 14.4c0-2.667-1.067-4.8-2.667-6.4-1.881-1.697-4.386-2.736-7.133-2.736-1.266 0-2.481 0.221-3.608 0.626l0.074-0.023 12.8 11.733 0.533-3.2z"/>
</symbol>
<symbol id="icon-drop-1" viewBox="0 0 57 32">
<path  d="M12.8 11.2c-1.067 0-2.133 1.067-2.133 2.133s1.067 2.133 2.133 2.133c1.6 0 2.133-1.067 2.133-2.133s-0.533-2.133-2.133-2.133zM29.867 10.667c0-1.6-0.533-3.2-1.6-4.267l-4.8-1.6c-2.133 0-3.733 0.533-4.8 1.6-1.6 1.067-2.133 2.667-2.133 4.267v8.533s13.333-1.067 13.333-8.533zM5.867 22.4c0 1.067 0.533 2.133 1.6 2.667l3.2 1.067 3.2-1.067c1.067-0.533 1.067-1.6 1.067-2.667v-6.4s-9.067 1.067-9.067 6.4zM10.667 23.467l-1.067-0.533v-0.533l-0.533-0.533 0.533-0.533h2.133c0.113 0.167 0.18 0.372 0.18 0.593 0 0.463-0.294 0.856-0.706 1.004l-0.007 0.002-0.533 0.533zM19.733 22.4h-0.533v1.067h-0.533v-2.133h1.6v0.533h-1.067v0.533h0.533zM22.4 22.4l-0.533 0.533c-0.109 0.238-0.296 0.424-0.527 0.531l-0.007 0.003h-0.533l-0.533-0.533v-1.067c0.187-0.326 0.532-0.542 0.929-0.542 0.049 0 0.096 0.003 0.143 0.010l-0.005-0.001h0.533v0.533l0.533 0.533zM21.867 22.4v-0.533h-1.067v1.067l0.533 0.533 0.533-0.533v-0.533zM23.467 22.933v-0.533h-0.533l-0.533-0.533v-0.533h1.6v0.533h-1.067l0.533 0.533h0.533v1.067h-1.6v-0.533h0.533l0.533 0.533v-0.533zM26.133 21.867h-0.533v1.6h-0.533v-1.6h-0.533v-0.533h1.6v0.533zM27.733 22.4h-0.533v1.067h-0.533v-2.133h1.6v0.533h-1.067v0.533h0.533zM29.333 22.933h-0.533v0.533h-0.533v-2.133h1.6v1.067h-0.533l0.533 1.067h-0.533v-0.533zM28.8 22.4h0.533v-0.533h-0.533v0.533zM31.467 22.933v0.533h-0.533v-2.133h1.6v0.533h0.533l-1.067 1.067h-0.533zM31.467 22.4h1.067v-0.533h-1.067v0.533zM34.667 22.4h-1.067v1.067h-0.533v-2.133h1.6v0.533h-1.067v0.533h1.067zM36.8 21.867h-0.533v1.6h-0.533v-1.6h-1.067v-0.533h2.133v0.533zM38.4 22.4h-1.067v1.067h-0.533v-2.133h1.6v0.533h-1.067v0.533h1.067zM39.467 22.933v0.533h-0.533v-2.133h1.6v1.067h-0.533l0.533 1.067h-0.533l-0.533-0.533zM39.467 22.4h0.533v-0.533h-0.533v0.533zM42.133 22.933l-0.533-0.533h-0.533v-1.067h1.067l0.533 0.533h-1.067v0.533h0.533l0.533 0.533-0.533 0.533h-1.067l-0.533-0.533h0.533l0.533 0.533 0.533-0.533z"/>
</symbol>
<symbol id="icon-leaf-1" viewBox="0 0 57 32">
<path  d="M14.4 24v1.067h-2.667v-3.2h1.6l0.533 0.533h0.533v1.067h-0.533l0.533 0.533zM12.267 23.467h1.067l0.533-0.533-0.533-0.533h-1.067v1.067zM13.333 24.533h0.533v-0.533h-1.6v0.533h1.067zM17.6 25.067l-1.067-1.067h-0.533v1.067h-0.533v-3.2h1.6l1.067 1.067v0.533l-1.067 0.533 1.067 1.067h-0.533zM16 23.467h1.067l0.533-0.533h-0.533v-0.533h-1.067v1.067zM21.333 24.533h-1.6v0.533h-1.067l1.6-3.2h0.533l1.6 3.2h-1.067v-0.533zM21.333 24l-0.533-1.067-0.533 1.067h1.067zM26.133 25.067h-0.533l-1.6-2.133v2.133h-0.533v-3.2h0.533l1.6 2.133v-2.133h0.533v3.2zM30.4 24.533l-0.533 0.533h-2.133v-3.2h1.067l1.067 0.533 0.533 0.533c0.135 0.23 0.214 0.505 0.214 0.8s-0.080 0.57-0.218 0.808l0.004-0.008zM29.333 24.533l0.533-1.067-1.067-1.067h-0.533v2.133h1.067zM21.867 3.733s9.067 3.2 9.067 8v7.467s-9.6-3.2-9.067-7.467v-8zM38.933 17.6c2.133-1.067 4.267-2.133 6.4-2.133v-2.667c-2.667 1.067-4.8 2.667-6.4 4.8z"/>
<path  d="M37.867 18.133c1.6-2.667 4.267-4.8 7.467-5.867v-6.933s-13.333 4.8-13.333 11.2v11.2l1.6-0.533v-1.067c0.533-3.2 2.133-5.867 4.267-8z"/>
<path  d="M36.8 22.4l0.533-2.133c-1.557 1.688-2.55 3.918-2.666 6.377l-0.001 0.023 2.667-1.067-0.533-3.2zM37.333 22.4v3.2c3.733-2.133 8-5.333 8-9.067-2.667 0-5.333 1.067-6.933 2.667l-1.067 3.2z"/>
</symbol>
<symbol id="icon-rectengl-1" viewBox="0 0 57 32">
<path  d="M20.267 3.733l3.733 3.733h-6.933v17.067h18.133v-6.4l3.733 3.2v-17.6h-18.667zM35.2 17.6l-10.667-10.133h10.667v10.133zM32 21.867h-12.267v-11.733h1.067v11.2h11.2v0.533zM22.933 26.667l-0.533 1.067-0.533-1.067h-0.533l0.533 1.067v1.067h0.533v-1.067l0.533-1.067zM23.467 28.8v-0.533h0.533l0.533 0.533-0.533-2.133h-0.533l-0.533 2.133h0.533zM24 27.2v0.533h-0.533l0.533-0.533zM25.6 27.733v0.533l0.533 0.533 0.533-0.533v0.533h0.533l-1.067-1.067 0.533-0.533c0.045-0.076 0.071-0.168 0.071-0.267s-0.027-0.19-0.073-0.269l0.001 0.003h-1.067v1.067zM26.133 28.267h-0.533l0.533-0.533v0.533zM29.333 28.267v-0.533h-0.533v0.533h-0.533v-1.067h1.067v-0.533h-1.067l-0.533 0.533v1.067l0.533 0.533h0.533l0.533-0.533zM30.933 28.267v-1.067c0-0.295-0.239-0.533-0.533-0.533v0h-0.533v0.533l-0.533 0.533 1.067 1.067 0.533-0.533zM30.933 27.2v1.067h-1.067v-1.067h1.067z"/>
</symbol>
<symbol id="icon-close" viewBox="0 0 32 32">
<path d="M26.667 7.111l-1.778-1.778-7.111 7.111-8.889-7.111-1.778 1.778 7.111 8.889-7.111 7.111 1.778 1.778 8.889-7.111 7.111 7.111 1.778-1.778-7.111-7.111 7.111-8.889z"/>
</symbol>
<!--    svg modal -->
<symbol id="icon-email" viewBox="0 0 32 32">
<path d="M26.667 5.333h-21.333l-1.778 3.556v16l1.778 1.778h21.333l3.556-1.778v-16l-3.556-3.556zM26.667 10.667l-10.667 7.111-10.667-7.111 1.778-1.778 8.889 5.333 8.889-5.333c0-0.982 0.796-1.778 1.778-1.778s1.778 0.796 1.778 1.778c0 0.982-0.796 1.778-1.778 1.778v0z"/>
</symbol>
<symbol id="icon-person" viewBox="0 0 32 32">
<path d="M16 16c2.946 0 5.333-2.388 5.333-5.333s-2.388-5.333-5.333-5.333v0c-2.946 0-5.333 2.388-5.333 5.333s2.388 5.333 5.333 5.333v0zM16 19.556c-3.556 0-10.667 1.778-10.667 5.333l1.778 1.778h17.778l1.778-1.778c0-3.556-7.111-5.333-10.667-5.333z"/>
</symbol>
<symbol id="icon-phone" viewBox="0 0 32 32">
<path d="M24.889 19.556h-5.333l-1.778 3.556-8.889-8.889 1.778-1.778 1.778-3.556-1.778-1.778-1.778-3.556h-1.778l-3.556 3.556c1.778 10.667 10.667 19.556 21.333 19.556l1.778-1.778v-1.778l-1.778-3.556z"/>
</symbol>

<symbol id="icon-send" viewBox="0 0 32 32">
<path   d="M32 0l-32 18.667 10.667 2.667 16-14.667-12 16v9.333l5.333-6.667 6.667 2.667 5.333-28z"/>
</symbol>
<symbol id="icon-checked" viewBox="0 0 16 15" >
<rect width="16" height="15" rx="2" />
<path d="M3.95703 7.75166L3.88825 7.68604L3.81923 7.75141L2.93123 8.59258L2.85486 8.66492L2.93097 8.73753L6.42671 12.0724L6.49574 12.1382L6.56476 12.0724L14.069 4.91352L14.1449 4.84116L14.069 4.76881L13.1873 3.92764L13.1183 3.86183L13.0493 3.92761L6.49577 10.1735L3.95703 7.75166Z" fill="white" stroke="white" stroke-width="0.2"/>
</symbol>
</defs>
</svg>
